<?xml version="1.0" encoding="UTF-8"?>
<svg width="60px" height="60px" viewBox="0 0 60 60" version="1.1" xmlns="http://www.w3.org/2000/svg" xmlns:xlink="http://www.w3.org/1999/xlink">
    <title>verified_white_24dp</title>
    <g id="Page-1" stroke="none" stroke-width="1" fill="none" fill-rule="evenodd">
        <g id="Our-People-Blue-Orange" transform="translate(-1129.000000, -7549.000000)">
            <g id="verified_white_24dp" transform="translate(1129.000000, 7549.000000)">
                <rect id="Rectangle" x="0" y="0" width="60" height="60"></rect>
                <path d="M57.5,30 L51.4,23.025 L52.25,13.8 L43.225,11.75 L38.5,3.75 L30,7.4 L21.5,3.75 L16.775,11.725 L7.75,13.75 L8.6,23 L2.5,30 L8.6,36.975 L7.75,46.225 L16.775,48.275 L21.5,56.25 L30,52.575 L38.5,56.225 L43.225,48.25 L52.25,46.2 L51.4,36.975 L57.5,30 Z M25.225,41.8 L15.725,32.275 L19.425,28.575 L25.225,34.4 L39.85,19.725 L43.55,23.425 L25.225,41.8 Z" id="Shape" fill="#B8DCEE" fill-rule="nonzero"></path>
            </g>
        </g>
    </g>
</svg>