<?xml version="1.0" encoding="UTF-8"?>
<svg width="60px" height="60px" viewBox="0 0 60 60" version="1.1" xmlns="http://www.w3.org/2000/svg" xmlns:xlink="http://www.w3.org/1999/xlink">
    <title>diversity_3_black_24dp (1)</title>
    <g id="Page-1" stroke="none" stroke-width="1" fill="none" fill-rule="evenodd">
        <g id="Our-Impact-Blue-Orange" transform="translate(-746.000000, -3460.000000)">
            <g id="diversity_3_black_24dp-(1)" transform="translate(746.000000, 3460.000000)">
                <rect id="Rectangle" x="0" y="0" width="60" height="60"></rect>
                <g id="Group" transform="translate(2.500000, 10.000000)" fill="#B8DCEE" fill-rule="nonzero">
                    <path d="M13.3,22.525 C15.7,22.575 17.925,23.775 19.425,25.875 C21.25,28.45 24.275,30 27.5,30 C30.725,30 33.75,28.45 35.575,25.85 C37.075,23.75 39.3,22.55 41.7,22.5 C39.9,19.45 32.7,17.5 27.5,17.5 C22.325,17.5 15.1,19.45 13.3,22.525 Z" id="Path"></path>
                    <path d="M7.5,22.5 L7.5,22.5 C11.65,22.5 15,19.15 15,15 C15,10.85 11.65,7.5 7.5,7.5 C3.35,7.5 0,10.85 0,15 C0,19.15 3.35,22.5 7.5,22.5 Z" id="Path"></path>
                    <path d="M47.5,22.5 L47.5,22.5 C51.65,22.5 55,19.15 55,15 C55,10.85 51.65,7.5 47.5,7.5 C43.35,7.5 40,10.85 40,15 C40,19.15 43.35,22.5 47.5,22.5 Z" id="Path"></path>
                    <path d="M27.5,15 C31.65,15 35,11.65 35,7.5 C35,3.35 31.65,0 27.5,0 C23.35,0 20,3.35 20,7.5 C20,11.65 23.35,15 27.5,15 Z" id="Path"></path>
                    <path d="M50,25 L41.825,25 C39.9,25 38.45,26.125 37.625,27.3 C37.525,27.45 34.225,32.5 27.5,32.5 C23.925,32.5 19.925,30.9 17.375,27.3 C16.4,25.925 14.875,25 13.175,25 L5,25 C2.25,25 0,27.25 0,30 L0,40 L17.5,40 L17.5,34.35 C20.375,36.35 23.85,37.5 27.5,37.5 C31.15,37.5 34.625,36.35 37.5,34.35 L37.5,40 L55,40 L55,30 C55,27.25 52.75,25 50,25 Z" id="Path"></path>
                </g>
            </g>
        </g>
    </g>
</svg>