<svg id="diversity_3_black_24dp_1_" data-name="diversity_3_black_24dp (1)" xmlns="http://www.w3.org/2000/svg" width="60" height="60" viewBox="0 0 60 60">
  <rect id="Rectangle" width="60" height="60" fill="none"/>
  <g id="Group" transform="translate(2.5 10)">
    <path id="Path" d="M0,5.025a7.7,7.7,0,0,1,6.125,3.35A9.9,9.9,0,0,0,14.2,12.5a9.86,9.86,0,0,0,8.075-4.15A7.7,7.7,0,0,1,28.4,5c-1.8-3.05-9-5-14.2-5C9.025,0,1.8,1.95,0,5.025Z" transform="translate(13.3 17.5)" fill="#b8dcee"/>
    <path id="Path-2" data-name="Path" d="M7.5,15h0A7.5,7.5,0,1,0,0,7.5,7.49,7.49,0,0,0,7.5,15Z" transform="translate(0 7.5)" fill="#b8dcee"/>
    <path id="Path-3" data-name="Path" d="M7.5,15h0A7.5,7.5,0,1,0,0,7.5,7.49,7.49,0,0,0,7.5,15Z" transform="translate(40 7.5)" fill="#b8dcee"/>
    <path id="Path-4" data-name="Path" d="M7.5,15A7.5,7.5,0,1,0,0,7.5,7.49,7.49,0,0,0,7.5,15Z" transform="translate(20)" fill="#b8dcee"/>
    <path id="Path-5" data-name="Path" d="M50,0H41.825a5.178,5.178,0,0,0-4.2,2.3A12.439,12.439,0,0,1,27.5,7.5,12.429,12.429,0,0,1,17.375,2.3a5.209,5.209,0,0,0-4.2-2.3H5A5.015,5.015,0,0,0,0,5V15H17.5V9.35a17.518,17.518,0,0,0,10,3.15,17.518,17.518,0,0,0,10-3.15V15H55V5A5.015,5.015,0,0,0,50,0Z" transform="translate(0 25)" fill="#b8dcee"/>
  </g>
</svg>
