<?xml version="1.0" encoding="UTF-8"?>
<svg width="60px" height="60px" viewBox="0 0 60 60" version="1.1" xmlns="http://www.w3.org/2000/svg" xmlns:xlink="http://www.w3.org/1999/xlink">
    <title>attach_money_white_24dp</title>
    <g id="Page-1" stroke="none" stroke-width="1" fill="none" fill-rule="evenodd">
        <g id="Home-Blue-Orange" transform="translate(-750.000000, -1987.000000)">
            <g id="attach_money_white_24dp" transform="translate(750.000000, 1987.000000)">
                <polygon id="Path" points="0 0 60 0 60 60 0 60"></polygon>
                <path d="M29.5,27.25 C23.825,25.775 22,24.25 22,21.875 C22,19.15 24.525,17.25 28.75,17.25 C33.2,17.25 34.85,19.375 35,22.5 L40.525,22.5 C40.35,18.2 37.725,14.25 32.5,12.975 L32.5,7.5 L25,7.5 L25,12.9 C20.15,13.95 16.25,17.1 16.25,21.925 C16.25,27.7 21.025,30.575 28,32.25 C34.25,33.75 35.5,35.95 35.5,38.275 C35.5,40 34.275,42.75 28.75,42.75 C23.6,42.75 21.575,40.45 21.3,37.5 L15.8,37.5 C16.1,42.975 20.2,46.05 25,47.075 L25,52.5 L32.5,52.5 L32.5,47.125 C37.375,46.2 41.25,43.375 41.25,38.25 C41.25,31.15 35.175,28.725 29.5,27.25 Z" id="Path" fill="#B8DCEE" fill-rule="nonzero"></path>
            </g>
        </g>
    </g>
</svg>