<?xml version="1.0" encoding="UTF-8"?>
<svg width="60px" height="60px" viewBox="0 0 60 60" version="1.1" xmlns="http://www.w3.org/2000/svg" xmlns:xlink="http://www.w3.org/1999/xlink">
    <title>language_white_24dp</title>
    <g id="Page-1" stroke="none" stroke-width="1" fill="none" fill-rule="evenodd">
        <g id="Home-Blue-Orange" transform="translate(-377.000000, -1987.000000)">
            <g id="language_white_24dp" transform="translate(377.000000, 1987.000000)">
                <polygon id="Path" points="0 0 60 0 60 60 0 60"></polygon>
                <path d="M29.975,5 C16.175,5 5,16.2 5,30 C5,43.8 16.175,55 29.975,55 C43.8,55 55,43.8 55,30 C55,16.2 43.8,5 29.975,5 Z M47.3,20 L39.925,20 C39.125,16.875 37.975,13.875 36.475,11.1 C41.075,12.675 44.9,15.875 47.3,20 Z M30,10.1 C32.075,13.1 33.7,16.425 34.775,20 L25.225,20 C26.3,16.425 27.925,13.1 30,10.1 Z M10.65,35 C10.25,33.4 10,31.725 10,30 C10,28.275 10.25,26.6 10.65,25 L19.1,25 C18.9,26.65 18.75,28.3 18.75,30 C18.75,31.7 18.9,33.35 19.1,35 L10.65,35 Z M12.7,40 L20.075,40 C20.875,43.125 22.025,46.125 23.525,48.9 C18.925,47.325 15.1,44.15 12.7,40 L12.7,40 Z M20.075,20 L12.7,20 C15.1,15.85 18.925,12.675 23.525,11.1 C22.025,13.875 20.875,16.875 20.075,20 L20.075,20 Z M30,49.9 C27.925,46.9 26.3,43.575 25.225,40 L34.775,40 C33.7,43.575 32.075,46.9 30,49.9 Z M35.85,35 L24.15,35 C23.925,33.35 23.75,31.7 23.75,30 C23.75,28.3 23.925,26.625 24.15,25 L35.85,25 C36.075,26.625 36.25,28.3 36.25,30 C36.25,31.7 36.075,33.35 35.85,35 Z M36.475,48.9 C37.975,46.125 39.125,43.125 39.925,40 L47.3,40 C44.9,44.125 41.075,47.325 36.475,48.9 L36.475,48.9 Z M40.9,35 C41.1,33.35 41.25,31.7 41.25,30 C41.25,28.3 41.1,26.65 40.9,25 L49.35,25 C49.75,26.6 50,28.275 50,30 C50,31.725 49.75,33.4 49.35,35 L40.9,35 Z" id="Shape" fill="#B8DCEE" fill-rule="nonzero"></path>
            </g>
        </g>
    </g>
</svg>