<?xml version="1.0" encoding="UTF-8"?>
<svg width="60px" height="60px" viewBox="0 0 60 60" version="1.1" xmlns="http://www.w3.org/2000/svg" xmlns:xlink="http://www.w3.org/1999/xlink">
    <title>volunteer_activism_black_24dp</title>
    <g id="Page-1" stroke="none" stroke-width="1" fill="none" fill-rule="evenodd">
        <g id="Our-Impact-Blue-Orange" transform="translate(-375.000000, -3460.000000)">
            <g id="volunteer_activism_black_24dp" transform="translate(375.000000, 3460.000000)">
                <rect id="Rectangle" x="0" y="0" width="60" height="60"></rect>
                <g id="Group" transform="translate(2.500000, 5.000000)" fill="#B8DCEE" fill-rule="nonzero">
                    <rect id="Rectangle" x="0" y="22.5" width="10" height="27.5"></rect>
                    <path d="M37.5,3.125 C39.125,1.225 41.65,0 44.25,0 C48.875,0 52.5,3.625 52.5,8.25 C52.5,13.925 45.225,20.5 37.5,27.5 C29.775,20.475 22.5,13.9 22.5,8.25 C22.5,3.625 26.125,0 30.75,0 C33.35,0 35.875,1.225 37.5,3.125 Z" id="Path"></path>
                    <path d="M47.5,37.5 L30,37.5 L24.775,35.675 L25.6,33.325 L30,35 L37.05,35 C38.675,35 40,33.675 40,32.05 L40,32.05 C40,30.825 39.225,29.725 38.075,29.275 L19.925,22.5 L15,22.5 L15,45.05 L32.5,50 L52.525,42.5 L52.525,42.5 C52.5,39.75 50.275,37.5 47.5,37.5 Z" id="Path"></path>
                </g>
            </g>
        </g>
    </g>
</svg>