<?xml version="1.0" encoding="UTF-8"?>
<svg width="60px" height="60px" viewBox="0 0 60 60" version="1.1" xmlns="http://www.w3.org/2000/svg" xmlns:xlink="http://www.w3.org/1999/xlink">
    <title>groups_black_48dp</title>
    <g id="Page-1" stroke="none" stroke-width="1" fill="none" fill-rule="evenodd">
        <g id="Our-People-Blue-Orange" transform="translate(-382.000000, -7549.000000)">
            <g id="groups_black_48dp" transform="translate(382.000000, 7549.000000)">
                <rect id="Rectangle" x="0" y="0" width="60" height="60"></rect>
                <path d="M30,31.875 C34.075,31.875 37.675,32.85 40.6,34.125 C43.3,35.325 45,38.025 45,40.95 L45,45 L15,45 L15,40.975 C15,38.025 16.7,35.325 19.4,34.15 C22.325,32.85 25.925,31.875 30,31.875 Z M10,32.5 C12.75,32.5 15,30.25 15,27.5 C15,24.75 12.75,22.5 10,22.5 C7.25,22.5 5,24.75 5,27.5 C5,30.25 7.25,32.5 10,32.5 Z M12.825,35.25 C11.9,35.1 10.975,35 10,35 C7.525,35 5.175,35.525 3.05,36.45 C1.2,37.25 0,39.05 0,41.075 L0,45 L11.25,45 L11.25,40.975 C11.25,38.9 11.825,36.95 12.825,35.25 Z M50,32.5 C52.75,32.5 55,30.25 55,27.5 C55,24.75 52.75,22.5 50,22.5 C47.25,22.5 45,24.75 45,27.5 C45,30.25 47.25,32.5 50,32.5 Z M60,41.075 C60,39.05 58.8,37.25 56.95,36.45 C54.825,35.525 52.475,35 50,35 C49.025,35 48.1,35.1 47.175,35.25 C48.175,36.95 48.75,38.9 48.75,40.975 L48.75,45 L60,45 L60,41.075 Z M30,15 C34.15,15 37.5,18.35 37.5,22.5 C37.5,26.65 34.15,30 30,30 C25.85,30 22.5,26.65 22.5,22.5 C22.5,18.35 25.85,15 30,15 Z" id="Shape" fill="#B8DCEE" fill-rule="nonzero"></path>
            </g>
        </g>
    </g>
</svg>