<svg id="volunteer_activism_black_24dp" xmlns="http://www.w3.org/2000/svg" width="60" height="60" viewBox="0 0 60 60">
  <rect id="Rectangle" width="60" height="60" fill="none"/>
  <g id="Group" transform="translate(2.5 5)">
    <rect id="Rectangle-2" data-name="Rectangle" width="10" height="27.5" transform="translate(0 22.5)" fill="#b8dcee"/>
    <path id="Path" d="M15,3.125A9.043,9.043,0,0,1,21.75,0,8.164,8.164,0,0,1,30,8.25c0,5.675-7.275,12.25-15,19.25C7.275,20.475,0,13.9,0,8.25A8.164,8.164,0,0,1,8.25,0,9.043,9.043,0,0,1,15,3.125Z" transform="translate(22.5)" fill="#b8dcee"/>
    <path id="Path-2" data-name="Path" d="M32.5,15H15L9.775,13.175l.825-2.35L15,12.5h7.05A2.955,2.955,0,0,0,25,9.55h0a3,3,0,0,0-1.925-2.775L4.925,0H0V22.55L17.5,27.5,37.525,20h0A5.036,5.036,0,0,0,32.5,15Z" transform="translate(15 22.5)" fill="#b8dcee"/>
  </g>
</svg>
